<?xml version="1.0" encoding="utf-8"?>
<svg xmlns="http://www.w3.org/2000/svg" viewBox="453.617 75.157 333.5433 349.685" width="345.543px" height="360.685px" xmlns:bx="https://boxy-svg.com">
  <defs>
    <style bx:fonts="Alatsi">@import url(https://fonts.googleapis.com/css2?family=Alatsi%3Aital%2Cwght%400%2C400&amp;display=swap);</style>
  </defs>
  <path d="M 487.199 370.001 L 484.124 357.88 C 478.671 355.571 473.092 353.571 467.413 351.889 L 467.025 357.522 L 465.45 351.316 C 458.408 349.305 453.617 348.42 453.617 348.42 C 453.617 348.42 460.087 373.01 473.662 391.81 L 489.478 394.586 L 477.191 396.357 C 478.898 398.41 480.733 400.353 482.685 402.176 C 502.43 420.49 524.423 428.893 531.807 420.944 C 539.191 412.995 529.17 391.704 509.424 373.392 C 503.303 367.714 495.614 363.158 487.916 359.572 L 487.199 370.001 Z" fill="#F2F2F2" transform="matrix(1, 0, 0, 1, 1.1368683772161603e-13, 0)"/>
  <path d="M 516.45 356.836 L 520.087 344.871 C 516.614 340.078 512.873 335.484 508.882 331.111 L 505.636 335.733 L 507.498 329.607 C 502.509 324.249 498.866 321.017 498.866 321.017 C 498.866 321.017 491.686 345.41 493.58 368.515 L 505.683 379.06 L 494.247 374.229 C 494.647 376.869 495.213 379.481 495.941 382.05 C 503.37 407.927 517.851 426.48 528.283 423.489 C 538.716 420.498 541.151 397.096 533.722 371.22 C 531.419 363.198 527.193 355.326 522.459 348.28 L 516.45 356.836 Z" fill="#F2F2F2" transform="matrix(1, 0, 0, 1, 1.1368683772161603e-13, 0)"/>
  <path d="M 697.298 158.073 L 695.379 158.073 L 695.379 105.555 C 695.379 101.563 694.592 97.61 693.064 93.922 C 691.535 90.234 689.294 86.883 686.47 84.061 C 683.645 81.238 680.291 78.999 676.601 77.471 C 672.91 75.944 668.954 75.157 664.96 75.157 L 553.607 75.157 C 545.539 75.157 537.802 78.36 532.097 84.061 C 526.392 89.761 523.187 97.493 523.187 105.555 L 523.187 393.677 C 523.187 397.669 523.974 401.622 525.503 405.31 C 527.032 408.998 529.272 412.349 532.097 415.172 C 534.922 417.994 538.275 420.233 541.966 421.761 C 545.657 423.288 549.612 424.075 553.607 424.075 L 664.96 424.075 C 673.027 424.075 680.765 420.872 686.469 415.171 C 692.174 409.471 695.379 401.739 695.379 393.677 L 695.379 195.456 L 697.297 195.456 L 697.298 158.073 Z" fill="#E6E6E6" transform="matrix(1, 0, 0, 1, 1.1368683772161603e-13, 0)"/>
  <path d="M 666.184 83.063 L 651.65 83.063 C 652.318 84.701 652.574 86.477 652.393 88.237 C 652.212 89.996 651.601 91.684 650.614 93.152 C 649.627 94.62 648.293 95.823 646.731 96.654 C 645.169 97.486 643.426 97.921 641.656 97.921 L 577.864 97.921 C 576.094 97.921 574.351 97.486 572.789 96.654 C 571.227 95.822 569.894 94.619 568.906 93.152 C 567.919 91.684 567.308 89.996 567.128 88.236 C 566.947 86.477 567.202 84.7 567.871 83.063 L 554.295 83.063 C 548.27 83.063 542.492 85.454 538.232 89.712 C 533.971 93.969 531.578 99.743 531.578 105.763 L 531.578 393.467 C 531.578 399.488 533.971 405.262 538.232 409.519 C 542.492 413.776 548.27 416.168 554.295 416.168 L 666.184 416.168 C 672.209 416.168 677.987 413.776 682.247 409.519 C 686.508 405.262 688.901 399.488 688.901 393.467 L 688.901 105.763 C 688.901 99.742 686.508 93.968 682.247 89.711 C 677.987 85.454 672.209 83.063 666.184 83.063 Z" fill="white" transform="matrix(1, 0, 0, 1, 1.1368683772161603e-13, 0)"/>
  <path d="M 643.634 233.446 L 576.825 233.446 C 576.189 233.445 575.579 233.192 575.129 232.743 C 574.679 232.294 574.426 231.684 574.426 231.049 L 574.426 164.289 C 574.426 163.653 574.679 163.044 575.129 162.595 C 575.579 162.145 576.189 161.892 576.825 161.892 L 643.634 161.892 C 644.27 161.892 644.88 162.145 645.33 162.595 C 645.78 163.044 646.033 163.653 646.033 164.289 L 646.033 231.049 C 646.033 231.684 645.78 232.294 645.33 232.743 C 644.88 233.192 644.27 233.445 643.634 233.446 Z M 576.825 162.851 C 576.443 162.852 576.077 163.003 575.807 163.273 C 575.537 163.542 575.386 163.908 575.385 164.289 L 575.385 231.049 C 575.386 231.431 575.537 231.796 575.807 232.066 C 576.077 232.335 576.443 232.487 576.825 232.487 L 643.634 232.487 C 644.016 232.487 644.382 232.335 644.652 232.066 C 644.921 231.796 645.073 231.431 645.074 231.049 L 645.074 164.289 C 645.073 163.908 644.921 163.542 644.652 163.273 C 644.382 163.003 644.016 162.852 643.634 162.851 L 576.825 162.851 Z" fill="#CCCCCC" transform="matrix(1, 0, 0, 1, 1.1368683772161603e-13, 0)"/>
  <path d="M 658.551 284.621 L 556.086 284.621 L 556.086 285.58 L 658.551 285.58 L 658.551 284.621 Z" fill="#CCCCCC" transform="matrix(1, 0, 0, 1, 1.1368683772161603e-13, 0)"/>
  <path d="M 559.322 278.634 C 561.109 278.634 562.558 277.186 562.558 275.4 C 562.558 273.614 561.109 272.167 559.322 272.167 C 557.535 272.167 556.086 273.614 556.086 275.4 C 556.086 277.186 557.535 278.634 559.322 278.634 Z" fill="#3056D3" transform="matrix(1, 0, 0, 1, 1.1368683772161603e-13, 0)"/>
  <path d="M 658.551 316.954 L 556.086 316.954 L 556.086 317.914 L 658.551 317.914 L 658.551 316.954 Z" fill="#CCCCCC" transform="matrix(1, 0, 0, 1, 1.1368683772161603e-13, 0)"/>
  <path d="M 559.322 310.968 C 561.109 310.968 562.558 309.52 562.558 307.734 C 562.558 305.948 561.109 304.501 559.322 304.501 C 557.535 304.501 556.086 305.948 556.086 307.734 C 556.086 309.52 557.535 310.968 559.322 310.968 Z" fill="#3056D3" transform="matrix(1, 0, 0, 1, 1.1368683772161603e-13, 0)"/>
  <path d="M 656.679 353.774 L 624.297 353.774 C 623.738 353.774 623.201 353.551 622.806 353.156 C 622.41 352.761 622.188 352.225 622.187 351.666 L 622.187 340.325 C 622.188 339.766 622.41 339.23 622.806 338.835 C 623.201 338.44 623.738 338.217 624.297 338.217 L 656.679 338.217 C 657.238 338.217 657.775 338.44 658.17 338.835 C 658.566 339.23 658.788 339.766 658.789 340.325 L 658.789 351.666 C 658.788 352.225 658.566 352.761 658.17 353.156 C 657.775 353.551 657.238 353.774 656.679 353.774 Z" fill="#3056D3" transform="matrix(1, 0, 0, 1, 1.1368683772161603e-13, 0)"/>
  <path d="M 569.88 278.634 C 571.667 278.634 573.116 277.186 573.116 275.4 C 573.116 273.614 571.667 272.167 569.88 272.167 C 568.093 272.167 566.644 273.614 566.644 275.4 C 566.644 277.186 568.093 278.634 569.88 278.634 Z" fill="#3056D3" transform="matrix(1, 0, 0, 1, 1.1368683772161603e-13, 0)"/>
  <path d="M 580.435 278.634 C 582.222 278.634 583.671 277.186 583.671 275.4 C 583.671 273.614 582.222 272.167 580.435 272.167 C 578.648 272.167 577.199 273.614 577.199 275.4 C 577.199 277.186 578.648 278.634 580.435 278.634 Z" fill="#3056D3" transform="matrix(1, 0, 0, 1, 1.1368683772161603e-13, 0)"/>
  <path d="M 569.88 310.968 C 571.667 310.968 573.116 309.52 573.116 307.734 C 573.116 305.948 571.667 304.501 569.88 304.501 C 568.093 304.501 566.644 305.948 566.644 307.734 C 566.644 309.52 568.093 310.968 569.88 310.968 Z" fill="#3056D3" transform="matrix(1, 0, 0, 1, 1.1368683772161603e-13, 0)"/>
  <path d="M 580.435 310.968 C 582.222 310.968 583.671 309.52 583.671 307.734 C 583.671 305.948 582.222 304.501 580.435 304.501 C 578.648 304.501 577.199 305.948 577.199 307.734 C 577.199 309.52 578.648 310.968 580.435 310.968 Z" fill="#3056D3" transform="matrix(1, 0, 0, 1, 1.1368683772161603e-13, 0)"/>
  <path d="M 718.359 304.466 C 718.589 304.571 718.81 304.694 719.021 304.835 L 740.049 295.866 L 740.8 290.331 L 749.202 290.28 L 748.706 302.975 L 720.951 310.31 C 720.892 310.502 720.822 310.692 720.741 310.876 C 720.339 311.731 719.694 312.449 718.886 312.94 C 718.077 313.43 717.142 313.671 716.197 313.632 C 715.253 313.593 714.34 313.276 713.575 312.72 C 712.81 312.165 712.227 311.396 711.897 310.51 C 711.568 309.624 711.509 308.661 711.725 307.741 C 711.942 306.821 712.426 305.986 713.117 305.34 C 713.807 304.695 714.673 304.267 715.606 304.112 C 716.539 303.956 717.496 304.079 718.359 304.466 Z" fill="#FFB8B8" transform="matrix(1, 0, 0, 1, 1.1368683772161603e-13, 0)"/>
  <path d="M 752.259 419.509 L 746.511 419.509 L 743.777 397.355 L 752.26 397.355 L 752.259 419.509 Z" fill="#FFB8B8" transform="matrix(1, 0, 0, 1, 1.1368683772161603e-13, 0)"/>
  <path d="M 742.405 417.868 L 753.49 417.868 L 753.49 424.842 L 735.426 424.842 C 735.426 422.992 736.161 421.219 737.47 419.911 C 738.779 418.603 740.554 417.868 742.405 417.868 Z" fill="#1C2434" transform="matrix(1, 0, 0, 1, 1.1368683772161603e-13, 0)"/>
  <path d="M 774.612 417.886 L 768.891 418.449 L 763.996 396.67 L 772.439 395.839 L 774.612 417.886 Z" fill="#FFB8B8" transform="matrix(1, 0, 0, 1, 1.1368683772161603e-13, 0)"/>
  <path d="M 764.645 417.218 L 775.676 416.132 L 776.361 423.073 L 758.383 424.842 C 758.293 423.931 758.384 423.011 758.65 422.134 C 758.916 421.258 759.352 420.442 759.934 419.734 C 760.515 419.026 761.231 418.44 762.039 418.008 C 762.847 417.576 763.733 417.308 764.645 417.218 Z" fill="#1C2434" transform="matrix(1, 0, 0, 1, 1.1368683772161603e-13, 0)"/>
  <path d="M 753.859 266.834 C 760.218 266.834 765.374 261.682 765.374 255.327 C 765.374 248.972 760.218 243.82 753.859 243.82 C 747.499 243.82 742.344 248.972 742.344 255.327 C 742.344 261.682 747.499 266.834 753.859 266.834 Z" fill="#FFB8B8" transform="matrix(1, 0, 0, 1, 1.1368683772161603e-13, 0)"/>
  <path d="M 745.224 415.029 C 744.73 415.03 744.252 414.857 743.873 414.54 C 743.494 414.223 743.24 413.783 743.154 413.296 C 740.179 396.793 730.455 342.833 730.222 341.338 C 730.217 341.304 730.214 341.269 730.215 341.234 L 730.215 337.211 C 730.214 337.064 730.26 336.921 730.346 336.802 L 731.63 335.004 C 731.691 334.918 731.771 334.846 731.864 334.796 C 731.957 334.745 732.061 334.716 732.166 334.711 C 739.491 334.368 763.477 333.363 764.636 334.809 C 765.8 336.263 765.389 340.669 765.295 341.537 L 765.299 341.628 L 776.076 410.494 C 776.16 411.043 776.025 411.603 775.699 412.053 C 775.373 412.504 774.882 412.807 774.334 412.899 L 767.603 414.007 C 767.102 414.088 766.588 413.986 766.156 413.72 C 765.724 413.454 765.401 413.042 765.247 412.558 C 763.165 405.911 756.185 383.55 753.766 374.898 C 753.75 374.843 753.716 374.796 753.668 374.764 C 753.621 374.733 753.563 374.72 753.507 374.728 C 753.451 374.736 753.399 374.765 753.362 374.808 C 753.325 374.851 753.305 374.906 753.306 374.963 C 753.427 383.211 753.719 404.255 753.82 411.523 L 753.831 412.305 C 753.835 412.835 753.64 413.348 753.285 413.741 C 752.93 414.135 752.44 414.381 751.912 414.431 L 745.421 415.02 C 745.355 415.026 745.289 415.029 745.224 415.029 Z" style="fill: rgb(28, 36, 52);" transform="matrix(1, 0, 0, 1, 1.1368683772161603e-13, 0)"/>
  <path d="M 746.55 271.358 C 744.541 272.552 743.338 274.745 742.648 276.978 C 741.371 281.11 740.602 285.383 740.358 289.702 L 739.629 302.632 L 730.601 336.912 C 738.426 343.527 742.939 342.024 753.472 336.612 C 764.004 331.201 765.208 338.417 765.208 338.417 L 767.314 309.249 L 770.323 277.376 C 769.648 276.564 768.883 275.829 768.044 275.187 C 765.262 273.025 762.026 271.523 758.579 270.793 C 755.133 270.063 751.565 270.124 748.145 270.972 L 746.55 271.358 Z" fill="#3056D3" transform="matrix(1, 0, 0, 1, 1.1368683772161603e-13, 0)"/>
  <path d="M 743.618 311.389 C 743.861 311.481 744.096 311.591 744.321 311.719 L 765.114 301.32 L 765.459 295.686 L 774.036 295.095 L 774.495 307.938 L 746.709 317.12 C 746.482 318.092 745.964 318.973 745.225 319.644 C 744.485 320.315 743.558 320.745 742.568 320.877 C 741.577 321.009 740.57 320.837 739.68 320.383 C 738.79 319.929 738.059 319.215 737.585 318.336 C 737.111 317.458 736.916 316.455 737.026 315.463 C 737.136 314.47 737.545 313.535 738.2 312.781 C 738.855 312.026 739.724 311.489 740.692 311.241 C 741.66 310.992 742.68 311.044 743.618 311.389 Z" fill="#FFB8B8" transform="matrix(1, 0, 0, 1, 1.1368683772161603e-13, 0)"/>
  <path d="M 770.173 277.522 C 775.289 279.327 776.19 298.873 776.19 298.873 C 770.171 295.566 762.949 300.978 762.949 300.978 C 762.949 300.978 761.444 295.866 759.639 289.251 C 759.094 287.39 759.029 285.422 759.449 283.529 C 759.87 281.636 760.764 279.881 762.046 278.426 C 762.046 278.426 765.057 275.717 770.173 277.522 Z" fill="#3056D3" transform="matrix(1, 0, 0, 1, 1.1368683772161603e-13, 0)"/>
  <path d="M 764.183 258.37 C 762.749 257.223 760.791 259.308 760.791 259.308 L 759.643 248.985 C 759.643 248.985 752.47 249.844 747.878 248.699 C 743.287 247.553 742.57 252.857 742.57 252.857 C 742.333 250.714 742.285 248.556 742.427 246.405 C 742.713 243.824 746.444 241.244 753.044 239.523 C 759.643 237.803 763.087 245.258 763.087 245.258 C 767.678 247.552 765.618 259.517 764.183 258.37 Z" fill="#1C2434" transform="matrix(1, 0, 0, 1, 1.1368683772161603e-13, 0)"/>
  <text style="fill: rgb(28, 36, 52); font-family: Alatsi; font-size: 27px; font-weight: 700; letter-spacing: 1.7px; text-transform: uppercase; word-spacing: 10.2px; white-space: pre;" x="555.578" y="141.788" transform="matrix(1, 0, 0, 1, 1.1368683772161603e-13, 0)">UNIVATS</text>
  <text style="white-space: pre; fill: rgb(51, 51, 51); font-family: Arial, sans-serif; font-size: 28px;" x="779.379" y="127.386" transform="matrix(1, 0, 0, 1, 1.1368683772161603e-13, 0)"> </text>
  <g transform="matrix(0.12249900400638582, 0, 0, 0.13370199501514435, 578.2423878384342, 162.39578731047462)" style="">
    <g>
      <polygon points="458.97,95.229 256,13.104 53.029,95.229 0,95.229 0,149.391 30.417,149.391 31.187,149.391 480.813,149.391     481.583,149.391 512,149.391 512,95.229   " style="stroke-linejoin: round; fill: rgb(28, 36, 52);"/>
    </g>
  </g>
  <g transform="matrix(0.12249900400638582, 0, 0, 0.13370199501514435, 578.2423878384342, 162.39578731047462)" style="">
    <g>
      <polygon points="481.583,444.734 480.813,444.734 31.187,444.734 30.417,444.734 0,444.734 0,498.896 512,498.896 512,444.734       " style="fill: rgb(28, 36, 52);"/>
    </g>
  </g>
  <g transform="matrix(0.12249900400638582, 0, 0, 0.13370199501514435, 578.2423878384342, 162.39578731047462)" style="">
    <g>
      <path d="M480.813,221.945v-42.138h-30.417H61.604H31.187v42.138h15.209v150.234H31.187v42.138h30.417h388.792h30.417v-42.138    h-15.209V221.945H480.813z M157.27,372.179h-24.291V221.945h24.291V372.179z M268.146,372.179h-24.292V221.945h24.292V372.179z     M379.02,372.179h-24.291V221.945h24.291V372.179z" style="fill: rgb(28, 36, 52);"/>
    </g>
  </g>
</svg>