<?xml version="1.0" encoding="utf-8"?>
<svg xmlns="http://www.w3.org/2000/svg" viewBox="388.694 72.576 333.5432 349.685" width="333.543px" height="349.685px" xmlns:bx="https://boxy-svg.com">
  <defs>
    <style bx:fonts="Alatsi">@import url(https://fonts.googleapis.com/css2?family=Alatsi%3Aital%2Cwght%400%2C400&amp;display=swap);</style>
  </defs>
  <path d="M 422.276 367.42 L 419.201 355.299 C 413.748 352.99 408.169 350.99 402.49 349.308 L 402.102 354.941 L 400.527 348.735 C 393.485 346.724 388.694 345.839 388.694 345.839 C 388.694 345.839 395.164 370.429 408.739 389.229 L 424.555 392.005 L 412.268 393.776 C 413.975 395.829 415.81 397.772 417.762 399.595 C 437.507 417.909 459.5 426.312 466.884 418.363 C 474.268 410.414 464.247 389.123 444.501 370.811 C 438.38 365.133 430.691 360.577 422.993 356.991 L 422.276 367.42 Z" fill="#F2F2F2" transform="matrix(1, 0, 0, 1, 1.1368683772161603e-13, 0)"/>
  <path d="M 451.527 354.255 L 455.164 342.29 C 451.691 337.497 447.95 332.903 443.959 328.53 L 440.713 333.152 L 442.575 327.026 C 437.586 321.668 433.943 318.436 433.943 318.436 C 433.943 318.436 426.763 342.829 428.657 365.934 L 440.76 376.479 L 429.324 371.648 C 429.724 374.288 430.29 376.9 431.018 379.469 C 438.447 405.346 452.928 423.899 463.36 420.908 C 473.793 417.917 476.228 394.515 468.799 368.639 C 466.496 360.617 462.27 352.745 457.536 345.699 L 451.527 354.255 Z" fill="#F2F2F2" transform="matrix(1, 0, 0, 1, 1.1368683772161603e-13, 0)"/>
  <path d="M 632.375 155.492 L 630.456 155.492 L 630.456 102.974 C 630.456 98.982 629.669 95.029 628.141 91.341 C 626.612 87.653 624.371 84.302 621.547 81.48 C 618.722 78.657 615.368 76.418 611.678 74.89 C 607.987 73.363 604.031 72.576 600.037 72.576 L 488.684 72.576 C 480.616 72.576 472.879 75.779 467.174 81.48 C 461.469 87.18 458.264 94.912 458.264 102.974 L 458.264 391.096 C 458.264 395.088 459.051 399.041 460.58 402.729 C 462.109 406.417 464.349 409.768 467.174 412.591 C 469.999 415.413 473.352 417.652 477.043 419.18 C 480.734 420.707 484.689 421.494 488.684 421.494 L 600.037 421.494 C 608.104 421.494 615.842 418.291 621.546 412.59 C 627.251 406.89 630.456 399.158 630.456 391.096 L 630.456 192.875 L 632.374 192.875 L 632.375 155.492 Z" fill="#E6E6E6" transform="matrix(1, 0, 0, 1, 1.1368683772161603e-13, 0)"/>
  <path d="M 601.261 80.482 L 586.727 80.482 C 587.395 82.12 587.651 83.896 587.47 85.656 C 587.289 87.415 586.678 89.103 585.691 90.571 C 584.704 92.039 583.37 93.242 581.808 94.073 C 580.246 94.905 578.503 95.34 576.733 95.34 L 512.941 95.34 C 511.171 95.34 509.428 94.905 507.866 94.073 C 506.304 93.241 504.971 92.038 503.983 90.571 C 502.996 89.103 502.385 87.415 502.205 85.655 C 502.024 83.896 502.279 82.119 502.948 80.482 L 489.372 80.482 C 483.347 80.482 477.569 82.873 473.309 87.131 C 469.048 91.388 466.655 97.162 466.655 103.182 L 466.655 390.886 C 466.655 396.907 469.048 402.681 473.309 406.938 C 477.569 411.195 483.347 413.587 489.372 413.587 L 601.261 413.587 C 607.286 413.587 613.064 411.195 617.324 406.938 C 621.585 402.681 623.978 396.907 623.978 390.886 L 623.978 103.182 C 623.978 97.161 621.585 91.387 617.324 87.13 C 613.064 82.873 607.286 80.482 601.261 80.482 Z" fill="white" transform="matrix(1, 0, 0, 1, 1.1368683772161603e-13, 0)"/>
  <path d="M 578.711 230.865 L 511.902 230.865 C 511.266 230.864 510.656 230.611 510.206 230.162 C 509.756 229.713 509.503 229.103 509.503 228.468 L 509.503 161.708 C 509.503 161.072 509.756 160.463 510.206 160.014 C 510.656 159.564 511.266 159.311 511.902 159.311 L 578.711 159.311 C 579.347 159.311 579.957 159.564 580.407 160.014 C 580.857 160.463 581.11 161.072 581.11 161.708 L 581.11 228.468 C 581.11 229.103 580.857 229.713 580.407 230.162 C 579.957 230.611 579.347 230.864 578.711 230.865 Z M 511.902 160.27 C 511.52 160.271 511.154 160.422 510.884 160.692 C 510.614 160.961 510.463 161.327 510.462 161.708 L 510.462 228.468 C 510.463 228.85 510.614 229.215 510.884 229.485 C 511.154 229.754 511.52 229.906 511.902 229.906 L 578.711 229.906 C 579.093 229.906 579.459 229.754 579.729 229.485 C 579.998 229.215 580.15 228.85 580.151 228.468 L 580.151 161.708 C 580.15 161.327 579.998 160.961 579.729 160.692 C 579.459 160.422 579.093 160.271 578.711 160.27 L 511.902 160.27 Z" fill="#CCCCCC" transform="matrix(1, 0, 0, 1, 1.1368683772161603e-13, 0)"/>
  <path d="M 593.628 282.04 L 491.163 282.04 L 491.163 282.999 L 593.628 282.999 L 593.628 282.04 Z" fill="#CCCCCC" transform="matrix(1, 0, 0, 1, 1.1368683772161603e-13, 0)"/>
  <path d="M 494.399 276.053 C 496.186 276.053 497.635 274.605 497.635 272.819 C 497.635 271.033 496.186 269.586 494.399 269.586 C 492.612 269.586 491.163 271.033 491.163 272.819 C 491.163 274.605 492.612 276.053 494.399 276.053 Z" fill="#3056D3" transform="matrix(1, 0, 0, 1, 1.1368683772161603e-13, 0)"/>
  <path d="M 593.628 314.373 L 491.163 314.373 L 491.163 315.333 L 593.628 315.333 L 593.628 314.373 Z" fill="#CCCCCC" transform="matrix(1, 0, 0, 1, 1.1368683772161603e-13, 0)"/>
  <path d="M 494.399 308.387 C 496.186 308.387 497.635 306.939 497.635 305.153 C 497.635 303.367 496.186 301.92 494.399 301.92 C 492.612 301.92 491.163 303.367 491.163 305.153 C 491.163 306.939 492.612 308.387 494.399 308.387 Z" fill="#3056D3" transform="matrix(1, 0, 0, 1, 1.1368683772161603e-13, 0)"/>
  <path d="M 591.756 351.193 L 559.374 351.193 C 558.815 351.193 558.278 350.97 557.883 350.575 C 557.487 350.18 557.265 349.644 557.264 349.085 L 557.264 337.744 C 557.265 337.185 557.487 336.649 557.883 336.254 C 558.278 335.859 558.815 335.636 559.374 335.636 L 591.756 335.636 C 592.315 335.636 592.852 335.859 593.247 336.254 C 593.643 336.649 593.865 337.185 593.866 337.744 L 593.866 349.085 C 593.865 349.644 593.643 350.18 593.247 350.575 C 592.852 350.97 592.315 351.193 591.756 351.193 Z" fill="#3056D3" transform="matrix(1, 0, 0, 1, 1.1368683772161603e-13, 0)"/>
  <path d="M 504.957 276.053 C 506.744 276.053 508.193 274.605 508.193 272.819 C 508.193 271.033 506.744 269.586 504.957 269.586 C 503.17 269.586 501.721 271.033 501.721 272.819 C 501.721 274.605 503.17 276.053 504.957 276.053 Z" fill="#3056D3" transform="matrix(1, 0, 0, 1, 1.1368683772161603e-13, 0)"/>
  <path d="M 515.512 276.053 C 517.299 276.053 518.748 274.605 518.748 272.819 C 518.748 271.033 517.299 269.586 515.512 269.586 C 513.725 269.586 512.276 271.033 512.276 272.819 C 512.276 274.605 513.725 276.053 515.512 276.053 Z" fill="#3056D3" transform="matrix(1, 0, 0, 1, 1.1368683772161603e-13, 0)"/>
  <path d="M 504.957 308.387 C 506.744 308.387 508.193 306.939 508.193 305.153 C 508.193 303.367 506.744 301.92 504.957 301.92 C 503.17 301.92 501.721 303.367 501.721 305.153 C 501.721 306.939 503.17 308.387 504.957 308.387 Z" fill="#3056D3" transform="matrix(1, 0, 0, 1, 1.1368683772161603e-13, 0)"/>
  <path d="M 515.512 308.387 C 517.299 308.387 518.748 306.939 518.748 305.153 C 518.748 303.367 517.299 301.92 515.512 301.92 C 513.725 301.92 512.276 303.367 512.276 305.153 C 512.276 306.939 513.725 308.387 515.512 308.387 Z" fill="#3056D3" transform="matrix(1, 0, 0, 1, 1.1368683772161603e-13, 0)"/>
  <path d="M 653.436 301.885 C 653.666 301.99 653.887 302.113 654.098 302.254 L 675.126 293.285 L 675.877 287.75 L 684.279 287.699 L 683.783 300.394 L 656.028 307.729 C 655.969 307.921 655.899 308.111 655.818 308.295 C 655.416 309.15 654.771 309.868 653.963 310.359 C 653.154 310.849 652.219 311.09 651.274 311.051 C 650.33 311.012 649.417 310.695 648.652 310.139 C 647.887 309.584 647.304 308.815 646.974 307.929 C 646.645 307.043 646.586 306.08 646.802 305.16 C 647.019 304.24 647.503 303.405 648.194 302.759 C 648.884 302.114 649.75 301.686 650.683 301.531 C 651.616 301.375 652.573 301.498 653.436 301.885 Z" fill="#FFB8B8" transform="matrix(1, 0, 0, 1, 1.1368683772161603e-13, 0)"/>
  <path d="M 687.336 416.928 L 681.588 416.928 L 678.854 394.774 L 687.337 394.774 L 687.336 416.928 Z" fill="#FFB8B8" transform="matrix(1, 0, 0, 1, 1.1368683772161603e-13, 0)"/>
  <path d="M 677.482 415.287 L 688.567 415.287 L 688.567 422.261 L 670.503 422.261 C 670.503 420.411 671.238 418.638 672.547 417.33 C 673.856 416.022 675.631 415.287 677.482 415.287 Z" fill="#1C2434" transform="matrix(1, 0, 0, 1, 1.1368683772161603e-13, 0)"/>
  <path d="M 709.689 415.305 L 703.968 415.868 L 699.073 394.089 L 707.516 393.258 L 709.689 415.305 Z" fill="#FFB8B8" transform="matrix(1, 0, 0, 1, 1.1368683772161603e-13, 0)"/>
  <path d="M 699.722 414.637 L 710.753 413.551 L 711.438 420.492 L 693.46 422.261 C 693.37 421.35 693.461 420.43 693.727 419.553 C 693.993 418.677 694.429 417.861 695.011 417.153 C 695.592 416.445 696.308 415.859 697.116 415.427 C 697.924 414.995 698.81 414.727 699.722 414.637 Z" fill="#1C2434" transform="matrix(1, 0, 0, 1, 1.1368683772161603e-13, 0)"/>
  <path d="M 688.936 264.253 C 695.295 264.253 700.451 259.101 700.451 252.746 C 700.451 246.391 695.295 241.239 688.936 241.239 C 682.576 241.239 677.421 246.391 677.421 252.746 C 677.421 259.101 682.576 264.253 688.936 264.253 Z" fill="#FFB8B8" transform="matrix(1, 0, 0, 1, 1.1368683772161603e-13, 0)"/>
  <path d="M 680.301 412.448 C 679.807 412.449 679.329 412.276 678.95 411.959 C 678.571 411.642 678.317 411.202 678.231 410.715 C 675.256 394.212 665.532 340.252 665.299 338.757 C 665.294 338.723 665.291 338.688 665.292 338.653 L 665.292 334.63 C 665.291 334.483 665.337 334.34 665.423 334.221 L 666.707 332.423 C 666.768 332.337 666.848 332.265 666.941 332.215 C 667.034 332.164 667.138 332.135 667.243 332.13 C 674.568 331.787 698.554 330.782 699.713 332.228 C 700.877 333.682 700.466 338.088 700.372 338.956 L 700.376 339.047 L 711.153 407.913 C 711.237 408.462 711.102 409.022 710.776 409.472 C 710.45 409.923 709.959 410.226 709.411 410.318 L 702.68 411.426 C 702.179 411.507 701.665 411.405 701.233 411.139 C 700.801 410.873 700.478 410.461 700.324 409.977 C 698.242 403.33 691.262 380.969 688.843 372.317 C 688.827 372.262 688.793 372.215 688.745 372.183 C 688.698 372.152 688.64 372.139 688.584 372.147 C 688.528 372.155 688.476 372.184 688.439 372.227 C 688.402 372.27 688.382 372.325 688.383 372.382 C 688.504 380.63 688.796 401.674 688.897 408.942 L 688.908 409.724 C 688.912 410.254 688.717 410.767 688.362 411.16 C 688.007 411.554 687.517 411.8 686.989 411.85 L 680.498 412.439 C 680.432 412.445 680.366 412.448 680.301 412.448 Z" style="fill: rgb(28, 36, 52);" transform="matrix(1, 0, 0, 1, 1.1368683772161603e-13, 0)"/>
  <path d="M 681.627 268.777 C 679.618 269.971 678.415 272.164 677.725 274.397 C 676.448 278.529 675.679 282.802 675.435 287.121 L 674.706 300.051 L 665.678 334.331 C 673.503 340.946 678.016 339.443 688.549 334.031 C 699.081 328.62 700.285 335.836 700.285 335.836 L 702.391 306.668 L 705.4 274.795 C 704.725 273.983 703.96 273.248 703.121 272.606 C 700.339 270.444 697.103 268.942 693.656 268.212 C 690.21 267.482 686.642 267.543 683.222 268.391 L 681.627 268.777 Z" fill="#3056D3" transform="matrix(1, 0, 0, 1, 1.1368683772161603e-13, 0)"/>
  <path d="M 678.695 308.808 C 678.938 308.9 679.173 309.01 679.398 309.138 L 700.191 298.739 L 700.536 293.105 L 709.113 292.514 L 709.572 305.357 L 681.786 314.539 C 681.559 315.511 681.041 316.392 680.302 317.063 C 679.562 317.734 678.635 318.164 677.645 318.296 C 676.654 318.428 675.647 318.256 674.757 317.802 C 673.867 317.348 673.136 316.634 672.662 315.755 C 672.188 314.877 671.993 313.874 672.103 312.882 C 672.213 311.889 672.622 310.954 673.277 310.2 C 673.932 309.445 674.801 308.908 675.769 308.66 C 676.737 308.411 677.757 308.463 678.695 308.808 Z" fill="#FFB8B8" transform="matrix(1, 0, 0, 1, 1.1368683772161603e-13, 0)"/>
  <path d="M 705.25 274.941 C 710.366 276.746 711.267 296.292 711.267 296.292 C 705.248 292.985 698.026 298.397 698.026 298.397 C 698.026 298.397 696.521 293.285 694.716 286.67 C 694.171 284.809 694.106 282.841 694.526 280.948 C 694.947 279.055 695.841 277.3 697.123 275.845 C 697.123 275.845 700.134 273.136 705.25 274.941 Z" fill="#3056D3" transform="matrix(1, 0, 0, 1, 1.1368683772161603e-13, 0)"/>
  <path d="M 699.26 255.789 C 697.826 254.642 695.868 256.727 695.868 256.727 L 694.72 246.404 C 694.72 246.404 687.547 247.263 682.955 246.118 C 678.364 244.972 677.647 250.276 677.647 250.276 C 677.41 248.133 677.362 245.975 677.504 243.824 C 677.79 241.243 681.521 238.663 688.121 236.942 C 694.72 235.222 698.164 242.677 698.164 242.677 C 702.755 244.971 700.695 256.936 699.26 255.789 Z" fill="#1C2434" transform="matrix(1, 0, 0, 1, 1.1368683772161603e-13, 0)"/>
  <text style="fill: rgb(28, 36, 52); font-family: Alatsi; font-size: 27px; font-weight: 700; letter-spacing: 1.7px; text-transform: uppercase; word-spacing: 10.2px; white-space: pre;" x="490.655" y="139.207" transform="matrix(1, 0, 0, 1, 1.1368683772161603e-13, 0)"> </text>
  <text style="white-space: pre; fill: rgb(51, 51, 51); font-family: Arial, sans-serif; font-size: 28px;" x="714.456" y="124.805" transform="matrix(1, 0, 0, 1, 1.1368683772161603e-13, 0)"> </text>
  <g transform="matrix(0.12249900400638582, 0, 0, 0.13370199501514435, 513.31898502466, 159.8145646993685)" style="">
    <g>
      <polygon points="458.97,95.229 256,13.104 53.029,95.229 0,95.229 0,149.391 30.417,149.391 31.187,149.391 480.813,149.391     481.583,149.391 512,149.391 512,95.229   " style="stroke-linejoin: round; fill: rgb(28, 36, 52);"/>
    </g>
  </g>
  <g transform="matrix(0.12249900400638582, 0, 0, 0.13370199501514435, 513.31898502466, 159.8145646993685)" style="">
    <g>
      <polygon points="481.583,444.734 480.813,444.734 31.187,444.734 30.417,444.734 0,444.734 0,498.896 512,498.896 512,444.734       " style="fill: rgb(28, 36, 52);"/>
    </g>
  </g>
  <g transform="matrix(0.12249900400638582, 0, 0, 0.13370199501514435, 513.31898502466, 159.8145646993685)" style="">
    <g>
      <path d="M480.813,221.945v-42.138h-30.417H61.604H31.187v42.138h15.209v150.234H31.187v42.138h30.417h388.792h30.417v-42.138    h-15.209V221.945H480.813z M157.27,372.179h-24.291V221.945h24.291V372.179z M268.146,372.179h-24.292V221.945h24.292V372.179z     M379.02,372.179h-24.291V221.945h24.291V372.179z" style="fill: rgb(28, 36, 52);"/>
    </g>
  </g>
  <text style="fill: rgb(51, 51, 51); font-family: Arial, sans-serif; font-size: 28px; font-weight: 700; white-space: pre;" x="485.717" y="136.564" transform="matrix(1, 0, 0, 1, 1.1368683772161603e-13, 0)">UNIVATS</text>
</svg>